<svg xmlns="http://www.w3.org/2000/svg" preserveAspectRatio="xMidYMid" viewBox="0 0 221 43">
  <defs>
    <style>
      .cls-2 {
        fill: #f22c3b;
      }
    </style>
  </defs>
  <path d="M212.4 27C212.4 27 212.9 27.7 213.8 29.3 213.8 29.3 221 42.4 221 42.4 221 42.4 210.9 42.4 210.9 42.4 210.9 42.4 204.4 29.8 204.4 29.8 204.4 29.8 200.1 29.8 200.1 29.8 200.1 29.8 200.1 42.4 200.1 42.4 200.1 42.4 191.1 42.4 191.1 42.4 191.1 42.4 191.1 4.9 191.1 4.9 191.1 4.9 204 4.9 204 4.9 207.7 4.9 209.5 5.2 211.1 5.8 215.3 7.5 218 11.3 218 16.7 218 20.7 216.1 25 212.4 26.9 212.4 26.9 212.4 27 212.4 27ZM203.2 12.8C203.2 12.8 200.1 12.8 200.1 12.8 200.1 12.8 200.1 21.9 200.1 21.9 200.1 21.9 204.1 21.9 204.1 21.9 207 21.9 208.8 20.3 208.8 17.3 208.8 14.5 207.7 12.8 203.2 12.8ZM162.6 4.9C162.6 4.9 185.7 4.9 185.7 4.9 185.7 4.9 185.7 12.8 185.7 12.8 185.7 12.8 171.6 12.8 171.6 12.8 171.6 12.8 171.6 19.6 171.6 19.6 171.6 19.6 182.8 19.6 182.8 19.6 182.8 19.6 182.8 27.5 182.8 27.5 182.8 27.5 171.6 27.5 171.6 27.5 171.6 27.5 171.6 34.5 171.6 34.5 171.6 34.5 186.4 34.5 186.4 34.5 186.4 34.5 186.4 42.4 186.4 42.4 186.4 42.4 162.6 42.4 162.6 42.4 162.6 42.4 162.6 4.9 162.6 4.9ZM146.8 42.4C146.8 42.4 137.8 42.4 137.8 42.4 137.8 42.4 137.8 12.8 137.8 12.8 137.8 12.8 126.6 12.8 126.6 12.8 126.6 12.8 126.6 4.9 126.6 4.9 126.6 4.9 158 4.9 158 4.9 158 4.9 158 12.8 158 12.8 158 12.8 146.8 12.8 146.8 12.8 146.8 12.8 146.8 42.4 146.8 42.4ZM110.7 43C102 43 97.2 37.7 97.2 37.7 97.2 37.7 102 30.7 102 30.7 102 30.7 106.2 34.6 110.8 34.6 112.7 34.6 114.7 33.8 114.7 31.6 114.7 27.1 98.1 27.3 98.1 15.8 98.1 8.9 103.8 4.3 111.1 4.3 119.1 4.3 123 8.6 123 8.6 123 8.6 119.2 16 119.2 16 119.2 16 115.5 12.7 111 12.7 109.2 12.7 107.1 13.6 107.1 15.7 107.1 20.4 123.7 19.5 123.7 31.4 123.7 37.6 119 43 110.7 43ZM69.6 4.9C69.6 4.9 92.7 4.9 92.7 4.9 92.7 4.9 92.7 12.8 92.7 12.8 92.7 12.8 78.7 12.8 78.7 12.8 78.7 12.8 78.7 19.6 78.7 19.6 78.7 19.6 89.9 19.6 89.9 19.6 89.9 19.6 89.9 27.5 89.9 27.5 89.9 27.5 78.7 27.5 78.7 27.5 78.7 27.5 78.7 34.5 78.7 34.5 78.7 34.5 93.5 34.5 93.5 34.5 93.5 34.5 93.5 42.4 93.5 42.4 93.5 42.4 69.6 42.4 69.6 42.4 69.6 42.4 69.6 4.9 69.6 4.9ZM52.5 30.8C52.5 30.8 46.2 30.8 46.2 30.8 46.2 30.8 46.2 42.4 46.2 42.4 46.2 42.4 37.2 42.4 37.2 42.4 37.2 42.4 37.2 4.9 37.2 4.9 37.2 4.9 52.5 4.9 52.5 4.9 59.7 4.9 64.6 10.3 64.6 17.8 64.6 25.4 59.7 30.8 52.5 30.8ZM50.8 12.8C50.8 12.8 46.2 12.8 46.2 12.8 46.2 12.8 46.2 22.9 46.2 22.9 46.2 22.9 50.7 22.9 50.7 22.9 53.8 22.9 55.4 20.8 55.4 17.8 55.4 14.8 53.8 12.8 50.8 12.8ZM21.9 37C21.9 37 21.9 31.6 21.9 31.6 21.9 31.6 21.9 30.8 21.9 30.8 21.9 30.8 8.5 30.8 8.5 30.8 8.5 30.8 8.5 31.6 8.5 31.6 8.5 31.6 8.5 37 8.5 37 8.5 37 8.5 42.4 8.5 42.4 8.5 42.4 0 42.4 0 42.4 0 42.4 0 37 0 37 0 37 0 31.6 0 31.6 0 31.6 0 22.9 0 22.9 0 22.9 0 18 0 18 0 18 0 12.1 0 12.1 0 12.1 0 0 0 0 0 0 7.6 7.2 7.6 7.2 7.6 7.2 15 0 15 0 15 0 22.8 7.2 22.8 7.2 22.8 7.2 30.4 0 30.4 0 30.4 0 30.4 12.1 30.4 12.1 30.4 12.1 30.4 18 30.4 18 30.4 18 30.4 22.9 30.4 22.9 30.4 22.9 30.4 31.6 30.4 31.6 30.4 31.6 30.4 37 30.4 37 30.4 37 30.4 42.4 30.4 42.4 30.4 42.4 21.9 42.4 21.9 42.4 21.9 42.4 21.9 37 21.9 37ZM21.9 19.5C21.9 15.7 18.9 12.7 15.2 12.7 11.5 12.7 8.5 15.7 8.5 19.5 8.5 19.5 8.5 22.9 8.5 22.9 8.5 22.9 21.9 22.9 21.9 22.9 21.9 22.9 21.9 19.5 21.9 19.5Z" class="cls-2" fill-rule="evenodd"/>
</svg>
