<?xml version="1.0" encoding="UTF-8" standalone="no"?>
<svg width="1385px" height="279px" viewBox="0 0 1385 279" version="1.1" xmlns="http://www.w3.org/2000/svg" xmlns:xlink="http://www.w3.org/1999/xlink">
    <!-- Generator: Sketch 39.1 (31720) - http://www.bohemiancoding.com/sketch -->
    <title>illustrations</title>
    <desc>Created with Sketch.</desc>
    <defs>
        <rect id="path-1" x="0" y="0" width="1385" height="289"></rect>
    </defs>
    <g id="Design-Drafts" stroke="none" stroke-width="1" fill="none" fill-rule="evenodd">
        <g id="Artboard" transform="translate(0.000000, -10.000000)">
            <g id="illustrations">
                <mask id="mask-2" fill="white">
                    <use xlink:href="#path-1"></use>
                </mask>
                <g id="Mask"></g>
                <g opacity="0.599999964" mask="url(#mask-2)">
                    <g transform="translate(-24.000000, 0.000000)">
                        <g id="Group-Copy" stroke-width="1" fill="none" transform="translate(1267.000000, 226.000000) scale(-1, 1) translate(-1267.000000, -226.000000) translate(1157.000000, 108.000000)">
                            <path d="M27.3285024,235.84554 C31.6237504,155.836271 111.267805,81.8726857 172.789364,42.5040501" id="Path" stroke="#252424" stroke-width="5"></path>
                            <path d="" id="Path-3" stroke="#979797"></path>
                            <path d="M104.644476,95.4780642 C96.0271492,94.3752007 82.2713928,88.6717186 77.4118012,81.1258642 C72.5522097,73.5800098 69.0948387,43.0152777 71.7319996,35.7103427 C72.1439967,34.5691109 94.2619522,44.7675062 101.732885,57.6251469 C109.203818,70.4827875 104.644476,95.4780642 104.644476,95.4780642 Z" id="Path-5" fill="#252424" transform="translate(88.421723, 65.550563) rotate(-17.000000) translate(-88.421723, -65.550563) "></path>
                            <path d="M69.8908532,129.263335 C61.273526,128.160471 47.5177696,122.456989 42.658178,114.911135 C37.7985865,107.36528 34.3412155,76.8005483 36.9783764,69.4956134 C37.3903735,68.3543815 59.508329,78.5527768 66.9792617,91.4104175 C74.4501944,104.268058 69.8908532,129.263335 69.8908532,129.263335 Z" id="Path-5-Copy-4" fill="#252424" transform="translate(53.668100, 99.335834) rotate(-17.000000) translate(-53.668100, -99.335834) "></path>
                            <path d="M42.5092107,168.497843 C33.8918835,167.394979 20.1361271,161.691497 15.2765355,154.145643 C10.416944,146.599788 6.95957297,116.035056 9.59673387,108.730121 C10.008731,107.588889 32.1266865,117.787285 39.5976192,130.644925 C47.0685519,143.502566 42.5092107,168.497843 42.5092107,168.497843 Z" id="Path-5-Copy-6" fill="#252424" transform="translate(26.286458, 138.570342) rotate(-17.000000) translate(-26.286458, -138.570342) "></path>
                            <path d="M157.512183,134.673742 C148.894856,133.570879 135.139099,127.867397 130.279508,120.321542 C125.419916,112.775688 121.962545,82.2109557 124.599706,74.9060207 C125.011703,73.7647889 147.129659,83.9631842 154.600591,96.8208248 C162.071524,109.678465 157.512183,134.673742 157.512183,134.673742 Z" id="Path-5-Copy-2" fill="#252424" transform="translate(141.289430, 104.746241) rotate(-214.000000) translate(-141.289430, -104.746241) "></path>
                            <path d="M122.75856,168.459013 C114.141233,167.356149 100.385476,161.652667 95.5258846,154.106813 C90.666293,146.560958 87.208922,115.996226 89.8460829,108.691291 C90.25808,107.550059 112.376036,117.748455 119.846968,130.606095 C127.317901,143.463736 122.75856,168.459013 122.75856,168.459013 Z" id="Path-5-Copy-5" fill="#252424" transform="translate(106.535807, 138.531512) rotate(-214.000000) translate(-106.535807, -138.531512) "></path>
                            <path d="M95.3769173,207.693521 C86.75959,206.590657 73.0038336,200.887175 68.1442421,193.341321 C63.2846505,185.795466 59.8272795,155.230734 62.4644404,147.925799 C62.8764375,146.784567 84.9943931,156.982963 92.4653257,169.840603 C99.9362584,182.698244 95.3769173,207.693521 95.3769173,207.693521 Z" id="Path-5-Copy-7" fill="#252424" transform="translate(79.154164, 177.766020) rotate(-214.000000) translate(-79.154164, -177.766020) "></path>
                            <path d="M145.402723,59.8550019 C136.785396,58.7521384 123.029639,53.0486563 118.170048,45.5028018 C113.310456,37.9569474 109.853085,7.3922153 112.490246,0.0872803604 C112.902243,-1.05395149 135.020199,9.14444384 142.491131,22.0020845 C149.962064,34.8597251 145.402723,59.8550019 145.402723,59.8550019 Z" id="Path-5-Copy" fill="#252424"></path>
                            <path d="M191.212666,106.337709 C182.595339,105.234845 168.839582,99.5313632 163.979991,91.9855088 C159.120399,84.4396543 155.663028,53.8749222 158.300189,46.5699873 C158.712186,45.4287554 180.830142,55.6271508 188.301075,68.4847914 C195.772007,81.3424321 191.212666,106.337709 191.212666,106.337709 Z" id="Path-5-Copy-3" fill="#252424" transform="translate(174.989913, 76.410208) rotate(-214.000000) translate(-174.989913, -76.410208) "></path>
                            <path d="M203.570756,57.4207584 C194.953428,56.3178949 181.197672,50.6144128 176.33808,43.0685584 C171.478489,35.5227039 168.021118,4.95797183 170.658279,-2.34696311 C171.070276,-3.48819496 193.188231,6.71020037 200.659164,19.567841 C208.130097,32.4254817 203.570756,57.4207584 203.570756,57.4207584 Z" id="Path-5-Copy-8" fill="#252424" transform="translate(187.348002, 27.493257) rotate(-280.000000) translate(-187.348002, -27.493257) "></path>
                        </g>
                        <path d="M1329.24901,203.784385 C1320.38019,196.088132 1307.5923,172.713816 1313.38514,158.663548 C1313.52172,158.332293 1328.01961,139.123412 1330.88129,140.26901 C1332.95897,141.100756 1332.26819,160.316626 1340.77196,156.698745 C1342.25554,156.06756 1343.58781,154.485896 1343.852,152.826341 C1344.86158,146.484399 1343.09536,139.815026 1344.4576,133.546398 C1345.34723,129.452558 1356.29705,112.106164 1360.92706,112.411084 C1364.35837,112.637061 1360.58357,119.658318 1360.92706,123.254808 C1361.072,124.772407 1361.54565,126.318361 1362.37482,127.569914 C1363.31221,128.984803 1364.53524,130.359473 1366.0581,130.999615 C1375.75213,135.074565 1368.08966,114.39341 1375.05929,104.168858 C1377.71842,100.267886 1380.98075,96.7874385 1384.52888,93.767836 C1387.89717,90.9012917 1392.72173,83.2850381 1395.63311,86.6597248 C1399.74155,91.4219676 1389.34995,103.548442 1395.02751,105.937181 L1396.89636,108.095978 C1397.90592,108.520733 1399.24369,108.713929 1400.15855,108.095978 C1404.20622,105.361922 1402.47233,99.234575 1403.05171,95.590875 C1405.03917,83.0917682 1411.71852,78.8503695 1423.99693,77.2485657 C1434.68454,75.8542932 1445.69601,73.8987967 1456.28295,75.9751742 C1458.65341,76.4400848 1456.64081,81.0736011 1456.28295,83.580704 C1455.60808,88.3086993 1454.65748,93.0234318 1453.20291,97.5531912 C1447.72662,114.60716 1441.2687,112.75895 1427.31117,117.46983 C1426.75861,117.656327 1427.44611,118.828971 1427.91677,119.185924 C1433.77283,123.627291 1447.677,120.101669 1450.73083,120.902018 C1452.2542,121.301262 1451.05549,124.238896 1450.73083,125.85382 C1450.21923,128.398681 1449.68562,131.087489 1448.25639,133.210641 C1445.7592,136.920289 1442.64151,140.217297 1439.20552,142.974967 C1428.38754,151.657302 1422.58264,146.483874 1411.8944,147.486553 C1411.21344,147.550435 1411.3116,149.267107 1411.8944,149.642863 L1413.3398,151.164963 C1414.91114,152.178068 1416.49165,153.321852 1418.28632,153.763975 C1422.99622,154.924275 1428.13712,154.098657 1432.65274,155.922772 C1433.82353,156.395717 1433.41936,158.511562 1433.28437,159.822533 C1433.19639,160.676863 1432.50306,161.3377 1432.02349,162.033559 C1429.06371,166.328203 1426.49504,170.98849 1422.97262,174.784884 C1420.8609,177.060842 1418.31819,179.290409 1415.36714,179.985395 C1409.42895,181.383862 1403.21247,181.08531 1397.13055,180.8708 C1395.27809,180.805463 1393.64844,179.440673 1391.815,179.154706 C1389.93987,178.862236 1387.80129,178.218043 1386.12804,179.154706 C1385.23713,179.653428 1385.33439,181.682565 1386.12804,182.338184 C1388.07378,183.945531 1386.11013,183.938142 1393.12792,184.937196 C1400.1457,185.93625 1410.78256,186.65329 1410.78256,186.65329 C1411.5023,187.876529 1411.37017,189.669454 1410.78256,190.968396 C1409.90789,192.901907 1408.35935,194.517837 1406.67821,195.726205 C1400.68016,200.037459 1394.51689,204.196361 1387.92118,207.400618 C1381.95703,210.29806 1375.64039,212.490724 1369.21384,213.92675 C1365.79075,214.691644 1362.17646,214.469538 1358.7152,213.92675 C1353.85361,213.164362 1349.06138,212.001709 1344.27484,210.806256 C1341.2407,210.048472 1400.15855,138.350229 1397.13055,130.999617 C1394.10255,123.649005 1329.24901,203.784385 1329.24901,203.784385 Z" id="Path-7-Copy" fill="#252424" transform="translate(1384.675506, 144.745112) rotate(-90.000000) translate(-1384.675506, -144.745112) "></path>
                        <g id="Group-2-Copy-2" stroke-width="1" fill="none" transform="translate(1026.226750, 237.673671) rotate(-54.000000) translate(-1026.226750, -237.673671) translate(933.726750, 142.673671)">
                            <path d="M101.470976,72.29162 C87.1905471,51.4843677 80.6408828,26.3433274 85.1469456,0.00440640088 C85.1967075,-0.286462843 94.0720623,13.9037825 96.4410344,18.6161108 C98.4675482,22.6472253 100.080506,26.973342 101.340904,31.3985851 C102.706548,36.1933473 103.758568,41.1426157 104.283782,46.1519106 C104.745774,50.5582119 104.764214,59.0611564 104.283783,61.4700103 C104.111215,62.3352546 101.470976,72.29162 101.470976,72.29162 Z" id="Path-17" fill="#252424"></path>
                            <path d="M45.2068427,143.828067 C30.9264138,123.020815 24.3767495,97.8797748 28.8828122,71.5408539 C28.9325741,71.2499846 37.8079289,85.44023 40.176901,90.1525582 C42.2034148,94.1836728 43.8163728,98.5097895 45.0767708,102.935033 C46.4424151,107.729795 47.4944344,112.679063 48.0196488,117.688358 C48.4816405,122.094659 48.5000803,130.597604 48.0196496,133.006458 C47.8470821,133.871702 45.2068427,143.828067 45.2068427,143.828067 Z" id="Path-17-Copy-3" fill="#252424" transform="translate(37.924479, 107.682257) rotate(-84.000000) translate(-37.924479, -107.682257) "></path>
                            <path d="M84.0907729,173.800542 C69.8103439,152.993289 63.2606796,127.852249 67.7667423,101.513328 C67.8165043,101.222459 76.691859,115.412704 79.0608312,120.125032 C81.087345,124.156147 82.700303,128.482264 83.9607009,132.907507 C85.3263453,137.702269 86.3783645,142.651537 86.9035789,147.660832 C87.3655707,152.067133 87.3840105,160.570078 86.9035798,162.978932 C86.7310122,163.844176 84.0907729,173.800542 84.0907729,173.800542 Z" id="Path-17-Copy-3" fill="#252424" transform="translate(76.808409, 137.654732) rotate(-177.000000) translate(-76.808409, -137.654732) "></path>
                            <path d="M92.2745437,81.4435675 C70.7187877,72.069822 53.84943,54.4006024 45.9204101,29.1537733 C45.8328473,28.8749644 59.7932334,35.7794845 63.933465,38.4150563 C67.4751851,40.6696302 70.794486,43.4221135 73.855961,46.4684665 C77.173077,49.7691975 80.2905336,53.388198 82.983303,57.3707976 C85.3519305,60.8739921 89.1743545,68.151512 89.8409463,70.5009713 C90.0803817,71.3448815 92.2745437,81.4435675 92.2745437,81.4435675" id="Path-17-Copy" fill="#252424"></path>
                            <path d="M21.52,67.8979066 C44.4253722,64.9915043 66.42868,71.9241075 83.456353,90.2779068 C83.6443952,90.4805938 68.4809491,91.6200658 63.7519305,91.4341777 C59.7065383,91.2751615 55.6628388,90.5563363 51.7328975,89.4410101 C47.4747961,88.2325514 43.2689977,86.6362313 39.2981152,84.49413 C35.8052276,82.609884 29.5275792,78.1220005 28.0065015,76.3767747 C27.4601405,75.7499012 21.52,67.8979066 21.52,67.8979066" id="Path-17-Copy-2" fill="#252424"></path>
                            <path d="M109.36,64.7748868 C113.326472,39.4343149 130.935921,23.3748135 151.269776,15.6158405 C157.292248,13.3177913 170.390353,9.71519049 170.390353,9.71519049 C171.895465,11.1192479 161.023621,30.798502 160.09841,32.3162104 C148.670214,51.0629138 109.36,64.7748868 109.36,64.7748868 Z" id="Path-19" fill="#252424"></path>
                            <path d="M100.21,71.7651456 C116.315856,63.0920432 136.628728,62.5332389 154.166212,64.3884829 C159.60714,64.9640641 178.667703,68.7237382 184.27048,73.6764801 C185.371748,74.6499791 181.993846,75.6337912 180.655071,76.0588462 C175.567538,77.6741151 170.36398,78.8071209 165.149902,79.7471776 C156.967778,81.2223497 142.329675,82.2968357 134.455877,81.3558274 C123.616133,80.060355 114.89033,72.2004673 103.973218,72.2004673 L100.21,71.7651456 Z" id="Path-20" fill="#252424"></path>
                            <path d="M91.06,79.9755291 C108.839758,79.5887002 127.594052,88.5832483 142.95943,98.4844469 C147.726471,101.55625 163.80995,113.909929 167.177328,121.056202 C167.839212,122.460857 164.405523,121.778985 163.032215,121.540837 C157.813454,120.635839 152.659199,119.235981 147.56355,117.654932 C139.567269,115.173891 125.814818,109.305848 118.954434,104.761792 C109.509842,98.5060569 104.317243,87.2426105 94.3439653,82.1341452 L91.06,79.9755291" id="Path-20-Copy" fill="#252424"></path>
                            <path d="M34.94,189.373234 C37.4278943,134.509853 83.5593381,83.7920758 119.193867,56.7964983" id="Path" stroke="#252424" stroke-width="5"></path>
                            <path d="M98.3709328,123.404569 C95.0261312,118.434087 84.4169157,99.8326466 83.7443314,91.7407695 C83.6121299,90.1502495 86.5412719,92.3214216 87.7245252,93.1579652 C92.2210546,96.3369489 96.4901344,99.9424576 100.643729,103.688408 C107.161704,109.566693 117.827926,121.150234 122.599636,128.416928 C129.168781,138.420879 139.858389,163.771862 139.858389,163.771862 C123.360656,156.135613 109.152074,139.425689 98.3709328,123.404569 Z" id="Path-20-Copy-2" fill="#252424"></path>
                        </g>
                        <path d="M1046.87654,299.296615 C1054.22144,271.028407 1062.19718,242.825541 1075.31816,217.421469 C1082.99296,202.561979 1092.90153,188.679649 1103.04076,176.367949 C1110.75196,167.004521 1118.77888,157.926387 1127.49674,149.904688 C1138.85131,139.456829 1172.59738,119.403989 1186.76677,122.082799 C1187.74627,122.26798 1181.92267,124.661484 1179.15385,126.876195 C1170.25568,133.993634 1153.94142,141.910836 1145.58752,149.904688 C1136.72112,158.388961 1128.62917,164.333675 1108.36041,193.505968 C1088.09165,222.678261 1081.92485,242.094418 1075.31816,260.443881 C1072.90787,267.138229 1067.98807,297.050007 1065.63087,299.083817 C1062.74384,301.574769 1046.87654,299.296615 1046.87654,299.296615 Z" id="Path-8-Copy-2" fill="#252424" transform="translate(1116.876540, 211.043935) scale(-1, 1) rotate(-16.000000) translate(-1116.876540, -211.043935) "></path>
                        <g id="Group-15" stroke-width="1" fill="none" transform="translate(626.000000, 174.000000)">
                            <g id="Group-13" transform="translate(126.664829, 0.000000)" fill="#252424">
                                <path d="M108.412407,134.993636 C108.412407,116.544177 104.506443,115.142699 109.992376,74.5116743 C115.478309,33.8806499 142.817029,15.5577255 142.190774,16.6492884 C141.564519,17.7408514 128.013311,32.3122752 124.835569,60.8815041 C121.657828,89.4507331 123.580869,112.494411 124.83557,119.703327 C125.281632,122.266185 127.064417,130.669636 127.53881,133.22275 C127.616792,133.642437 108.412407,134.993636 108.412407,134.993636 Z" id="Path-39"></path>
                                <path d="M136.168204,129.5906 C136.168204,116.096804 132.26224,115.071773 137.748172,85.3545453 C143.234105,55.6373177 162.543635,49.4396175 161.91738,50.2379785 C161.291125,51.0363395 155.769108,54.4902201 152.591366,75.3855407 C149.413624,96.2808613 151.336666,113.134835 152.591367,118.407382 C153.037428,120.281838 154.820214,126.428059 155.294607,128.295388 C155.372589,128.602343 136.168204,129.5906 136.168204,129.5906 Z" id="Path-39-Copy" transform="translate(148.376250, 89.881523) rotate(10.000000) translate(-148.376250, -89.881523) "></path>
                                <path d="M76.7696397,143.645392 C76.7696397,130.151595 73.3663052,129.126564 78.1462938,99.4093364 C82.9262823,69.6921088 99.7510106,63.4944087 99.2053441,64.2927697 C98.6596776,65.0911307 93.8482479,68.5450112 91.0794263,89.4403318 C88.3106047,110.335652 89.9861844,127.189626 91.0794268,132.462173 C91.468088,134.336629 93.0214602,140.48285 93.434807,142.350179 C93.5027538,142.657134 76.7696397,143.645392 76.7696397,143.645392 Z" id="Path-39-Copy-2" transform="translate(87.406722, 103.936314) scale(-1, 1) rotate(10.000000) translate(-87.406722, -103.936314) "></path>
                                <path d="M39.995521,118.390313 C39.995521,99.9408537 36.0895567,98.5393753 41.5754896,57.9083509 C47.0614224,17.2773265 74.4001425,-1.04559791 73.7738878,0.0459650617 C73.1476332,1.13752804 59.5964252,15.7089518 56.4186834,44.2781808 C53.2409415,72.8474097 55.1639834,95.8910875 56.418684,103.100003 C56.8647455,105.662862 58.6475312,114.066313 59.1219242,116.619427 C59.1999059,117.039113 39.995521,118.390313 39.995521,118.390313 Z" id="Path-39"></path>
                                <path d="M8.35275361,127.042068 C8.35275361,113.548271 4.9494191,112.523241 9.72940765,82.806013 C14.5093962,53.0887854 31.3341245,46.8910853 30.788458,47.6894463 C30.2427914,48.4878073 25.4313618,51.9416878 22.6625402,72.8370084 C19.8937186,93.732329 21.5692983,110.586303 22.6625407,115.85885 C23.0512019,117.733305 24.6045741,123.879527 25.0179208,125.746855 C25.0858676,126.053811 8.35275361,127.042068 8.35275361,127.042068 Z" id="Path-39-Copy-2" transform="translate(18.989836, 87.332990) scale(-1, 1) rotate(10.000000) translate(-18.989836, -87.332990) "></path>
                            </g>
                            <g id="Group-13-Copy" transform="translate(57.945112, 84.220337) scale(-1, 1) translate(-57.945112, -84.220337) translate(0.445112, 22.720337)" fill="#252424">
                                <path d="M61.8131311,113.850055 C61.8131311,98.2902699 58.380617,97.1083001 63.2015883,62.8411711 C68.0225596,28.5740421 92.0474954,13.1209733 91.4971504,14.0415686 C90.9468054,14.9621638 79.0381681,27.2513164 76.2456071,51.3458469 C73.4530461,75.4403773 75.1429919,94.8748043 76.2456076,100.954613 C76.6376011,103.11606 78.2042916,110.203308 78.6211823,112.356536 C78.6897117,112.710489 61.8131311,113.850055 61.8131311,113.850055 Z" id="Path-39"></path>
                                <path d="M86.2045888,109.293277 C86.2045888,97.912967 82.7720747,97.0484832 87.593046,71.9857611 C92.4140173,46.923039 109.382998,41.696063 108.832653,42.3693795 C108.282308,43.042696 103.429626,45.9556073 100.637065,63.5781668 C97.8445038,81.2007264 99.5344497,95.414921 100.637065,99.8616476 C101.029059,101.442514 102.595749,106.626074 103.01264,108.200929 C103.081169,108.459807 86.2045888,109.293277 86.2045888,109.293277 Z" id="Path-39-Copy" transform="translate(96.932871, 75.803694) rotate(10.000000) translate(-96.932871, -75.803694) "></path>
                                <path d="M34.0058506,121.146716 C34.0058506,109.766405 31.0150415,108.901921 35.2156375,83.8391994 C39.4162335,58.7764773 54.2016008,53.5495013 53.7220757,54.2228178 C53.2425505,54.8961343 49.0143245,57.8090456 46.5811176,75.4316051 C44.1479107,93.0541647 45.6203899,107.268359 46.5811181,111.715086 C46.9226688,113.295952 48.2877534,118.479512 48.6509976,120.054368 C48.7107084,120.313246 34.0058506,121.146716 34.0058506,121.146716 Z" id="Path-39-Copy-2" transform="translate(43.353590, 87.657132) scale(-1, 1) rotate(10.000000) translate(-43.353590, -87.657132) "></path>
                                <path d="M1.68920087,99.847252 C1.68920087,84.287467 -1.7433132,83.1054973 3.07765808,48.8383683 C7.89862935,14.5712393 31.9235652,-0.881829564 31.3732202,0.0387657147 C30.8228752,0.959360994 18.9142378,13.2485135 16.1216769,37.343044 C13.3291159,61.4375745 15.0190617,80.8720015 16.1216774,86.9518101 C16.5136709,89.1132569 18.0803614,96.2005047 18.4972521,98.3537336 C18.5657815,98.7076859 1.68920087,99.847252 1.68920087,99.847252 Z" id="Path-39"></path>
                            </g>
                        </g>
                        <g id="Group" stroke-width="1" fill="none" transform="translate(0.000000, 14.000000)">
                            <path d="M21.8937198,187.228258 C25.302334,123.712127 88.5061019,64.9954215 137.328257,33.7422503" id="Path" stroke="#252424" stroke-width="5"></path>
                            <path d="" id="Path-2" stroke="#979797"></path>
                            <path d="" id="Path-3" stroke="#979797"></path>
                            <path d="" id="Path-4" stroke="#979797"></path>
                            <path d="M83.2499744,75.7961826 C76.4114533,74.9206637 65.4951879,70.3928994 61.638723,64.4025501 C57.7822581,58.4122007 55.0385646,34.1480932 57.1313575,28.3490002 C57.4583093,27.4430222 75.0106318,35.5391168 80.9393995,45.7462789 C86.8681671,55.953441 83.2499744,75.7961826 83.2499744,75.7961826 Z" id="Path-5" fill="#252424" transform="translate(70.375955, 52.037947) rotate(-17.000000) translate(-70.375955, -52.037947) "></path>
                            <path d="M55.6702643,102.616946 C48.8317431,101.741427 37.9154777,97.2136625 34.0590128,91.2233132 C30.202548,85.2329638 27.4588545,60.9688563 29.5516473,55.1697632 C29.8785991,54.2637853 47.4309217,62.3598799 53.3596893,72.567042 C59.288457,82.774204 55.6702643,102.616946 55.6702643,102.616946 Z" id="Path-5-Copy-4" fill="#252424" transform="translate(42.796245, 78.858710) rotate(-17.000000) translate(-42.796245, -78.858710) "></path>
                            <path d="M33.9407957,133.763638 C27.1022745,132.888119 16.1860091,128.360355 12.3295443,122.370006 C8.47307938,116.379656 5.72938589,92.1155489 7.82217871,86.3164559 C8.14913054,85.4104779 25.7014531,93.5065725 31.6302207,103.713735 C37.5589884,113.920897 33.9407957,133.763638 33.9407957,133.763638 Z" id="Path-5-Copy-6" fill="#252424" transform="translate(21.066776, 110.005403) rotate(-17.000000) translate(-21.066776, -110.005403) "></path>
                            <path d="M125.204622,106.91205 C118.366101,106.036531 107.449836,101.508767 103.593371,95.5184173 C99.736906,89.5280679 96.9932125,65.2639604 99.0860053,59.4648673 C99.4129571,58.5588894 116.96528,66.6549839 122.894047,76.862146 C128.822815,87.0693081 125.204622,106.91205 125.204622,106.91205 Z" id="Path-5-Copy-2" fill="#252424" transform="translate(112.330603, 83.153814) rotate(-214.000000) translate(-112.330603, -83.153814) "></path>
                            <path d="M97.6249121,133.732813 C90.786391,132.857294 79.8701256,128.32953 76.0136607,122.33918 C72.1571958,116.348831 69.4135023,92.0847235 71.5062952,86.2856304 C71.833247,85.3796525 89.3855695,93.475747 95.3143372,103.682909 C101.243105,113.890071 97.6249121,133.732813 97.6249121,133.732813 Z" id="Path-5-Copy-5" fill="#252424" transform="translate(84.750892, 109.974577) rotate(-214.000000) translate(-84.750892, -109.974577) "></path>
                            <path d="M75.8954435,164.879505 C69.0569224,164.003987 58.140657,159.476222 54.2841921,153.485873 C50.4277272,147.495524 47.6840337,123.231416 49.7768266,117.432323 C50.1037784,116.526345 67.6561009,124.62244 73.5848686,134.829602 C79.5136363,145.036764 75.8954435,164.879505 75.8954435,164.879505 Z" id="Path-5-Copy-7" fill="#252424" transform="translate(63.021424, 141.121270) rotate(-214.000000) translate(-63.021424, -141.121270) "></path>
                            <path d="M115.594821,47.5164708 C108.7563,46.6409519 97.8400347,42.1131876 93.9835699,36.1228383 C90.127105,30.1324889 87.3834115,5.86838145 89.4762043,0.0692883563 C89.8031562,-0.836689564 107.355479,7.25940498 113.284246,17.4665671 C119.213014,27.6737292 115.594821,47.5164708 115.594821,47.5164708 Z" id="Path-5-Copy" fill="#252424"></path>
                            <path d="M151.948584,84.4172162 C145.110062,83.5416974 134.193797,79.0139331 130.337332,73.0235837 C126.480867,67.0332343 123.737174,42.7691269 125.829967,36.9700338 C126.156918,36.0640558 143.709241,44.1601504 149.638009,54.3673125 C155.566776,64.5744746 151.948584,84.4172162 151.948584,84.4172162 Z" id="Path-5-Copy-3" fill="#252424" transform="translate(139.074564, 60.658981) rotate(-214.000000) translate(-139.074564, -60.658981) "></path>
                            <path d="M161.755691,45.5840231 C154.91717,44.7085043 144.000905,40.18074 140.14444,34.1903906 C136.287975,28.2000413 133.544282,3.93593378 135.637074,-1.86315931 C135.964026,-2.76913723 153.516349,5.32695731 159.445116,15.5341194 C165.373884,25.7412815 161.755691,45.5840231 161.755691,45.5840231 Z" id="Path-5-Copy-8" fill="#252424" transform="translate(148.881672, 21.825788) rotate(-280.000000) translate(-148.881672, -21.825788) "></path>
                        </g>
                        <path d="M25,355.234558 C34.4434458,317.762747 44.6979704,280.377554 61.5677979,246.702388 C71.4353906,227.004924 84.1749842,208.602766 97.2111373,192.282606 C107.125534,179.87062 117.445863,167.836814 128.654541,157.2034 C143.253281,143.353912 186.64108,116.77224 204.858866,120.32322 C206.118229,120.568693 198.630737,123.741478 195.070829,126.677258 C183.63032,136.112002 162.654841,146.606897 151.914122,157.203399 C140.514463,168.449994 130.110522,176.330196 104.050686,215.000445 C77.9908496,253.670694 70.0621182,279.40839 61.5677991,303.732097 C58.4688568,312.606 52.1434006,352.256497 49.1127132,354.952478 C45.4008159,358.254437 25,355.234558 25,355.234558 Z" id="Path-8" fill="#252424"></path>
                        <path d="M46,392.282642 C55.4434458,359.741333 65.6979704,327.275244 82.5677979,298.031021 C92.4353906,280.925329 105.174984,264.944507 118.211137,250.771736 C128.125534,239.992907 138.445863,229.542496 149.654541,220.308216 C164.253281,208.281029 207.64108,185.196945 225.858866,188.280691 C227.118229,188.493865 219.630737,191.249178 216.070829,193.798671 C204.63032,201.992002 183.654841,211.10599 172.914122,220.308215 C161.514463,230.074995 151.110522,236.918328 125.050686,270.500387 C98.9908496,304.082445 91.0621182,326.433601 82.5677991,347.556821 C79.4688568,355.263106 73.1434006,389.696431 70.1127132,392.037678 C66.4008159,394.905169 46,392.282642 46,392.282642 Z" id="Path-8-Copy" fill="#252424"></path>
                        <g id="Group-2" stroke-width="1" fill="none" transform="translate(195.500000, 144.368110)">
                            <path d="M104.505895,74.8577999 C89.7185451,53.3119398 82.9363834,27.2784526 87.6024006,0.00456281759 C87.6539289,-0.29663159 96.8443376,14.3973336 99.2974026,19.2769383 C101.395853,23.4511478 103.066067,27.9308312 104.371206,32.5131599 C105.785327,37.4781247 106.874691,42.6030803 107.418549,47.7901932 C107.896941,52.3529077 107.916035,61.1576864 107.41855,63.6520488 C107.239857,64.5480073 104.505895,74.8577999 104.505895,74.8577999 Z" id="Path-17" fill="#252424"></path>
                            <path d="M46.2445195,148.93362 C31.4571694,127.38776 24.6750076,101.354273 29.3410248,74.0803833 C29.3925532,73.7791889 38.5829619,88.4731541 41.0360269,93.3527588 C43.134477,97.5269683 44.8046912,102.006652 46.1098303,106.58898 C47.5239517,111.553945 48.6133151,116.678901 49.1571734,121.866014 C49.6355648,126.428728 49.6546591,135.233507 49.1571743,137.727869 C48.978481,138.623828 46.2445195,148.93362 46.2445195,148.93362 Z" id="Path-17-Copy-3" fill="#252424" transform="translate(38.703649, 111.504720) rotate(-84.000000) translate(-38.703649, -111.504720) "></path>
                            <path d="M86.5087363,179.970046 C71.7213862,158.424186 64.9392245,132.390699 69.6052416,105.116809 C69.65677,104.815614 78.8471787,119.50958 81.3002437,124.389184 C83.3986939,128.563394 85.068908,133.043077 86.3740471,137.625406 C87.7881686,142.590371 88.877532,147.715326 89.4213902,152.902439 C89.8997816,157.465154 89.918876,166.269932 89.4213911,168.764295 C89.2426978,169.660253 86.5087363,179.970046 86.5087363,179.970046 Z" id="Path-17-Copy-3" fill="#252424" transform="translate(78.967866, 142.541146) rotate(-177.000000) translate(-78.967866, -142.541146) "></path>
                            <path d="M94.9830115,84.3346197 C72.6620776,74.6281286 55.193898,56.3316939 46.9834168,30.1886626 C46.8927457,29.8999567 61.3486922,37.0495707 65.6358921,39.7786991 C69.3033348,42.113305 72.7404629,44.9634949 75.9106131,48.117986 C79.3454787,51.5358852 82.5735976,55.2833516 85.3619539,59.407324 C87.814662,63.0348734 91.7727729,70.5707279 92.4630272,73.0035874 C92.7109619,73.8774544 94.9830115,84.3346197 94.9830115,84.3346197" id="Path-17-Copy" fill="#252424"></path>
                            <path d="M21.7168504,70.3081202 C45.4353086,67.2985475 68.2196812,74.4772415 85.8517961,93.4825569 C86.0465132,93.6924388 70.344801,94.8723593 65.4479135,94.6798726 C61.2589196,94.5152118 57.0716785,93.77087 53.0022336,92.6159524 C48.5929798,91.3645962 44.2378855,89.7116106 40.1260463,87.4934698 C36.5091694,85.5423376 30.0086795,80.8951449 28.4336072,79.0879678 C27.8678517,78.4388418 21.7168504,70.3081202 21.7168504,70.3081202" id="Path-17-Copy-2" fill="#252424"></path>
                            <path d="M112.674961,67.0742406 C116.782233,40.8341389 135.016775,24.2045636 156.072433,16.1701655 C162.308689,13.7905411 175.871746,10.0600566 175.871746,10.0600566 C177.430286,11.5139546 166.172517,31.8917752 165.214463,33.4633587 C153.380593,52.8755253 112.674961,67.0742406 112.674961,67.0742406 Z" id="Path-19" fill="#252424"></path>
                            <path d="M103.200157,74.3126369 C119.877733,65.3316601 140.911663,64.7530195 159.071687,66.6741202 C164.705754,67.2701333 184.442921,71.1632668 190.244584,76.2918192 C191.384945,77.2998751 187.887134,78.3186102 186.500836,78.7587536 C181.232708,80.4313607 175.844436,81.6045855 170.445271,82.578012 C161.972701,84.1055492 146.81498,85.2181768 138.661681,84.243765 C127.437152,82.9023064 118.401604,74.7634115 107.096961,74.7634115 L103.200157,74.3126369 Z" id="Path-20" fill="#252424"></path>
                            <path d="M93.7253543,82.8144694 C112.136252,82.413909 131.556278,91.727742 147.467091,101.98041 C152.40335,105.161255 169.057754,117.95346 172.544666,125.353409 C173.230045,126.807925 169.674468,126.101848 168.252411,125.855246 C162.848396,124.918124 157.511177,123.468573 152.234646,121.831401 C143.954515,119.262289 129.713886,113.185944 122.609974,108.480586 C112.830122,102.002787 107.453198,90.3395148 97.1258926,85.0497112 L93.7253543,82.8144694" id="Path-20-Copy" fill="#252424"></path>
                            <path d="M35.6132283,196.095531 C38.189437,139.284632 85.9584368,86.7664944 122.857907,58.8126383" id="Path" stroke="#252424" stroke-width="5"></path>
                            <path d="M101.295808,127.785136 C97.8322738,122.638214 86.8464564,103.376467 86.149997,94.9973477 C86.0131026,93.3503681 89.0462221,95.5986116 90.2714781,96.4648505 C94.9276236,99.7566805 99.3482455,103.490176 103.649282,107.369099 C110.39863,113.456049 121.443478,125.450778 126.384572,132.975422 C133.186906,143.33449 144.25597,169.585372 144.25597,169.585372 C127.172606,161.678054 112.459654,144.374968 101.295808,127.785136 Z" id="Path-20-Copy-2" fill="#252424"></path>
                        </g>
                        <g id="Group-4" stroke-width="1" fill="none" transform="translate(407.000000, 171.000000)">
                            <path d="M87.2604742,124.51726 C81.3969343,119.417044 72.9423309,103.927164 76.7722194,94.6162195 C76.8625145,94.3967008 86.4476694,81.6672046 88.3396415,82.4263786 C89.7132822,82.9775667 89.2565777,95.7116944 94.8787696,93.3141678 C95.8596308,92.8958895 96.7404472,91.8477395 96.9151113,90.7479723 C97.5825854,86.5452427 96.4148693,82.1255291 97.315498,77.9713841 C97.9036698,75.258445 105.143049,63.7631967 108.204139,63.9652635 C110.472722,64.1150158 107.977046,68.7679193 108.204139,71.1512703 C108.299965,72.1569647 108.613115,73.1814505 109.161314,74.0108395 C109.781056,74.9484695 110.589655,75.8594466 111.596478,76.2836614 C118.005605,78.9840819 112.939627,65.2789275 117.547538,58.5032391 C119.305594,55.9181117 121.462455,53.6116605 123.808273,51.610606 C126.035185,49.7109813 129.224904,44.663781 131.149738,46.9001456 C133.865998,50.056027 126.99568,58.0920965 130.749351,59.6750856 L131.98492,61.1056943 C132.652381,61.3871744 133.536842,61.5152035 134.14169,61.1056943 C136.817772,59.2938682 135.671424,55.2333486 136.054475,52.8187122 C137.36847,44.5357034 141.784459,41.7249791 149.902225,40.6634828 C156.968244,39.7395151 164.248379,38.4436309 171.247841,39.8196215 C172.815052,40.1277122 171.484439,43.1982881 171.247841,44.8597152 C170.801654,47.9929013 170.173178,51.1172982 169.211499,54.1191157 C165.590901,65.4205772 161.321304,64.1957902 152.093403,67.3176346 C151.728084,67.4412238 152.182622,68.218321 152.49379,68.4548696 C156.365477,71.39811 165.558092,69.0617227 167.577108,69.5921046 C168.584268,69.8566789 167.79175,71.8034135 167.577108,72.8736045 C167.238867,74.5600535 166.886073,76.3418942 165.941153,77.7488816 C164.290154,80.2072215 162.228923,82.3921089 159.957248,84.219584 C152.805036,89.9732639 148.96718,86.5448949 141.900747,87.2093584 C141.450536,87.2516921 141.515431,88.3893099 141.900747,88.6383189 L142.856357,89.6469969 C143.895236,90.3183694 144.940173,91.0763414 146.126703,91.3693311 C149.240613,92.138248 152.639475,91.5911204 155.624939,92.7999398 C156.398991,93.1133547 156.131782,94.5155001 156.04253,95.3842652 C155.984367,95.9504192 155.525977,96.3883481 155.208912,96.8494854 C153.252079,99.6954949 151.553831,102.783811 149.225008,105.299636 C147.828866,106.807887 146.147778,108.285394 144.196714,108.745953 C140.270737,109.6727 136.160764,109.474853 132.139757,109.3327 C130.915015,109.289402 129.837589,108.384972 128.625425,108.195465 C127.3857,108.001649 125.971799,107.57475 124.865544,108.195465 C124.276523,108.525962 124.340831,109.870647 124.865544,110.305118 C126.151953,111.370288 124.853705,111.365391 129.493451,112.027452 C134.133197,112.689514 141.165662,113.164687 141.165662,113.164687 C141.641512,113.975313 141.554154,115.163463 141.165662,116.024257 C140.587381,117.305571 139.563578,118.376429 138.452103,119.1772 C134.486549,122.034216 130.411758,124.790271 126.051064,126.913694 C122.107917,128.833794 117.931729,130.286846 113.682868,131.238483 C111.419727,131.74537 109.030166,131.598183 106.74179,131.238483 C103.527588,130.733258 100.35925,129.962782 97.1946702,129.17057 C95.1886783,128.668395 134.141692,81.1548256 132.139756,76.2836628 C130.137819,71.4124999 87.2604742,124.51726 87.2604742,124.51726 Z" id="Path-7-Copy" fill="#252424"></path>
                            <path d="M38.2445154,133.266056 C13.9806538,128.002898 12.4561266,124.930583 6.2065768,95.0843726 C5.34526635,90.9709798 5.42793712,86.4934298 6.59633645,82.4625113 C6.91029406,81.3793734 8.86383951,82.0164602 9.865141,82.4625113 C15.6534017,85.0410151 20.7469325,89.2176795 26.6811383,91.4097135 C27.6279972,91.7594733 26.6383918,89.0957985 25.901619,88.3862198 C19.8678735,82.5751774 12.2850455,78.5320366 6.74706381,72.2113977 C3.65399779,68.6812031 1.74154723,64.0354115 0.532224425,59.4314866 C-0.386857194,55.9325178 0.0675445723,52.1458285 0.532224425,48.5513346 C0.878574295,45.8721729 1.57508202,39.0477955 2.79403052,39.0477955 C4.15916577,39.0477955 11.6396348,46.4079964 14.2215544,47.6470178 C16.803474,48.8860392 21.5807679,49.782543 21.5807679,49.782543 C22.4490927,47.8305012 9.05164774,36.0811299 7.65343515,25.401698 C6.25522255,14.7222661 11.998161,1.40787918e-09 15.0629513,0 C18.1277416,-1.40787715e-09 28.6954014,12.1810292 31.521507,18.4423257 C34.3476126,24.7036222 33.3056918,22.7580633 36.4677595,46.0051515 C36.6729697,47.5138288 38.9857329,44.2695079 39.770059,42.9816578 C42.160145,39.0571769 42.5137781,32.8023156 45.6384563,29.3451494 C46.6837245,28.1886573 49.5408302,32.1713629 51.5070009,39.0477969 C52.6620835,43.0875525 53.6173033,47.2108223 54.1500585,51.3883295 C54.503401,54.1590031 54.5424875,57.0078753 54.1500585,59.7728742 C53.8222601,62.0824952 53.2109099,64.4388695 52.0170379,66.4172901 C49.0940532,71.2611037 42.9527799,82.2150208 40.6160897,87.3905086 C39.9029202,88.9700932 44.0227738,86.6739093 45.3586729,85.6156087 C48.3349763,83.2577782 51.8577006,75.3915553 53.678082,73.1304743 C55.4984633,70.8693933 57.8123659,67.711048 58.9611542,68.7200765 C61.1336737,70.6282906 61.5550636,74.0089596 62.4157035,76.824873 C63.4665174,80.2630134 64.3030891,83.8033532 64.667479,87.3905057 C65.2776232,93.3969287 65.5580026,99.4616817 65.3282434,105.496697 C65.2453096,107.675094 64.8617626,109.983798 63.7372324,111.825013 C60.9040395,116.463856 57.6375153,120.928277 53.6780839,124.571734 C50.2195078,127.754305 38.5625982,92.6061538 34.6051168,95.0843755 L38.2445154,133.266056 Z" id="Path-9-Copy" fill="#252424"></path>
                        </g>
                        <g id="Group-2" stroke-width="1" fill="none" transform="translate(916.000000, 126.000000)">
                            <g id="Group-17-Copy" transform="translate(25.176010, 18.915810) rotate(8.000000) translate(-25.176010, -18.915810) translate(2.676010, 3.915810)" fill="#252424">
                                <path d="M25.1500571,12.265511 C23.774707,-1.35851077 32.1125712,-2.00761578 39.5604895,2.51087439 C40.9637752,3.36221738 42.3693273,8.31608326 40.0776238,9.57087317 C37.0840121,11.2099831 32.5505702,9.7230485 30.3066256,12.3717212 C28.8453966,14.0965042 34.7270761,12.72686 36.8282015,13.4063762 C38.8239499,14.0518129 40.9457812,14.7839393 42.4541688,16.3003074 C43.5792123,17.4313032 43.8514189,19.2531053 44.2237913,20.8410943 C45.3552889,25.6663864 35.9162886,26.3176252 34.4766608,26.2291766 C27.4361325,25.7966167 25.7663887,20.8410948 25.1500571,12.3717213" id="Path-10"></path>
                                <path d="M3.35650886,13.9596154 C1.98115876,0.335593659 10.3190229,-0.313511354 17.7669412,4.20497882 C19.170227,5.05632181 20.575779,10.0101877 18.2840756,11.2649776 C15.2904638,12.9040875 10.7570219,11.4171529 8.51307732,14.0658257 C7.0518483,15.7906086 12.9335278,14.4209645 15.0346532,15.1004806 C17.0304016,15.7459173 19.152233,16.4780437 20.6606206,17.9944119 C21.785664,19.1254077 22.0578706,20.9472097 22.430243,22.5351988 C23.5617406,27.3604909 14.1227403,28.0117296 12.6831125,27.923281 C5.64258421,27.4907211 3.97284042,22.5351992 3.35650886,14.0658257" id="Path-10-Copy" transform="translate(12.865301, 14.812352) scale(-1, 1) rotate(11.000000) translate(-12.865301, -14.812352) "></path>
                            </g>
                        </g>
                        <g id="Group-2-Copy" stroke-width="1" fill="none" transform="translate(1346.090006, 29.969736) rotate(-38.000000) translate(-1346.090006, -29.969736) translate(1321.090006, 11.469736)">
                            <g id="Group-17-Copy" transform="translate(25.176010, 18.915810) rotate(8.000000) translate(-25.176010, -18.915810) translate(2.676010, 3.915810)" fill="#252424">
                                <path d="M25.1500571,12.265511 C23.774707,-1.35851077 32.1125712,-2.00761578 39.5604895,2.51087439 C40.9637752,3.36221738 42.3693273,8.31608326 40.0776238,9.57087317 C37.0840121,11.2099831 32.5505702,9.7230485 30.3066256,12.3717212 C28.8453966,14.0965042 34.7270761,12.72686 36.8282015,13.4063762 C38.8239499,14.0518129 40.9457812,14.7839393 42.4541688,16.3003074 C43.5792123,17.4313032 43.8514189,19.2531053 44.2237913,20.8410943 C45.3552889,25.6663864 35.9162886,26.3176252 34.4766608,26.2291766 C27.4361325,25.7966167 25.7663887,20.8410948 25.1500571,12.3717213" id="Path-10"></path>
                                <path d="M3.35650886,13.9596154 C1.98115876,0.335593659 10.3190229,-0.313511354 17.7669412,4.20497882 C19.170227,5.05632181 20.575779,10.0101877 18.2840756,11.2649776 C15.2904638,12.9040875 10.7570219,11.4171529 8.51307732,14.0658257 C7.0518483,15.7906086 12.9335278,14.4209645 15.0346532,15.1004806 C17.0304016,15.7459173 19.152233,16.4780437 20.6606206,17.9944119 C21.785664,19.1254077 22.0578706,20.9472097 22.430243,22.5351988 C23.5617406,27.3604909 14.1227403,28.0117296 12.6831125,27.923281 C5.64258421,27.4907211 3.97284042,22.5351992 3.35650886,14.0658257" id="Path-10-Copy" transform="translate(12.865301, 14.812352) scale(-1, 1) rotate(11.000000) translate(-12.865301, -14.812352) "></path>
                            </g>
                        </g>
                    </g>
                </g>
            </g>
        </g>
    </g>
</svg>